G04 #@! TF.GenerationSoftware,KiCad,Pcbnew,7.0.7*
G04 #@! TF.CreationDate,2023-10-31T22:21:59-05:00*
G04 #@! TF.ProjectId,esp32_example,65737033-325f-4657-9861-6d706c652e6b,rev?*
G04 #@! TF.SameCoordinates,Original*
G04 #@! TF.FileFunction,Copper,L1,Top*
G04 #@! TF.FilePolarity,Positive*
%FSLAX46Y46*%
G04 Gerber Fmt 4.6, Leading zero omitted, Abs format (unit mm)*
G04 Created by KiCad (PCBNEW 7.0.7) date 2023-10-31 22:21:59*
%MOMM*%
%LPD*%
G01*
G04 APERTURE LIST*
G04 Aperture macros list*
%AMRoundRect*
0 Rectangle with rounded corners*
0 $1 Rounding radius*
0 $2 $3 $4 $5 $6 $7 $8 $9 X,Y pos of 4 corners*
0 Add a 4 corners polygon primitive as box body*
4,1,4,$2,$3,$4,$5,$6,$7,$8,$9,$2,$3,0*
0 Add four circle primitives for the rounded corners*
1,1,$1+$1,$2,$3*
1,1,$1+$1,$4,$5*
1,1,$1+$1,$6,$7*
1,1,$1+$1,$8,$9*
0 Add four rect primitives between the rounded corners*
20,1,$1+$1,$2,$3,$4,$5,0*
20,1,$1+$1,$4,$5,$6,$7,0*
20,1,$1+$1,$6,$7,$8,$9,0*
20,1,$1+$1,$8,$9,$2,$3,0*%
%AMFreePoly0*
4,1,6,1.000000,0.000000,0.500000,-0.750000,-0.500000,-0.750000,-0.500000,0.750000,0.500000,0.750000,1.000000,0.000000,1.000000,0.000000,$1*%
%AMFreePoly1*
4,1,7,0.700000,0.000000,1.200000,-0.750000,-1.200000,-0.750000,-0.700000,0.000000,-1.200000,0.750000,1.200000,0.750000,0.700000,0.000000,0.700000,0.000000,$1*%
G04 Aperture macros list end*
G04 #@! TA.AperFunction,ComponentPad*
%ADD10O,1.740000X2.190000*%
G04 #@! TD*
G04 #@! TA.AperFunction,ComponentPad*
%ADD11RoundRect,0.250000X-0.620000X-0.845000X0.620000X-0.845000X0.620000X0.845000X-0.620000X0.845000X0*%
G04 #@! TD*
G04 #@! TA.AperFunction,SMDPad,CuDef*
%ADD12FreePoly0,0.000000*%
G04 #@! TD*
G04 #@! TA.AperFunction,SMDPad,CuDef*
%ADD13FreePoly1,0.000000*%
G04 #@! TD*
G04 #@! TA.AperFunction,SMDPad,CuDef*
%ADD14FreePoly0,180.000000*%
G04 #@! TD*
G04 #@! TA.AperFunction,ComponentPad*
%ADD15O,2.500000X5.000000*%
G04 #@! TD*
G04 #@! TA.AperFunction,ComponentPad*
%ADD16O,2.250000X4.500000*%
G04 #@! TD*
G04 #@! TA.AperFunction,ComponentPad*
%ADD17O,4.500000X2.250000*%
G04 #@! TD*
G04 #@! TA.AperFunction,SMDPad,CuDef*
%ADD18R,1.340000X0.590000*%
G04 #@! TD*
G04 #@! TA.AperFunction,SMDPad,CuDef*
%ADD19R,1.500000X0.900000*%
G04 #@! TD*
G04 #@! TA.AperFunction,SMDPad,CuDef*
%ADD20R,0.900000X1.500000*%
G04 #@! TD*
G04 #@! TA.AperFunction,SMDPad,CuDef*
%ADD21R,0.900000X0.900000*%
G04 #@! TD*
G04 #@! TA.AperFunction,SMDPad,CuDef*
%ADD22R,1.550000X1.300000*%
G04 #@! TD*
G04 #@! TA.AperFunction,SMDPad,CuDef*
%ADD23RoundRect,0.250000X-0.350000X-0.450000X0.350000X-0.450000X0.350000X0.450000X-0.350000X0.450000X0*%
G04 #@! TD*
G04 #@! TA.AperFunction,SMDPad,CuDef*
%ADD24RoundRect,0.150000X-0.587500X-0.150000X0.587500X-0.150000X0.587500X0.150000X-0.587500X0.150000X0*%
G04 #@! TD*
G04 #@! TA.AperFunction,SMDPad,CuDef*
%ADD25R,1.600000X5.700000*%
G04 #@! TD*
G04 #@! TA.AperFunction,ComponentPad*
%ADD26R,1.700000X1.700000*%
G04 #@! TD*
G04 #@! TA.AperFunction,ComponentPad*
%ADD27O,1.700000X1.700000*%
G04 #@! TD*
G04 #@! TA.AperFunction,SMDPad,CuDef*
%ADD28RoundRect,0.250000X-0.325000X-0.450000X0.325000X-0.450000X0.325000X0.450000X-0.325000X0.450000X0*%
G04 #@! TD*
G04 #@! TA.AperFunction,SMDPad,CuDef*
%ADD29RoundRect,0.250000X-0.337500X-0.475000X0.337500X-0.475000X0.337500X0.475000X-0.337500X0.475000X0*%
G04 #@! TD*
G04 #@! TA.AperFunction,ViaPad*
%ADD30C,0.800000*%
G04 #@! TD*
G04 #@! TA.AperFunction,Conductor*
%ADD31C,0.250000*%
G04 #@! TD*
G04 APERTURE END LIST*
D10*
X143637000Y-109728000D03*
X141097000Y-109728000D03*
X138557000Y-109728000D03*
X136017000Y-109728000D03*
X133477000Y-109728000D03*
X130937000Y-109728000D03*
D11*
X128397000Y-109728000D03*
D10*
X168402000Y-110871000D03*
X165862000Y-110871000D03*
X163322000Y-110871000D03*
X160782000Y-110871000D03*
X158242000Y-110871000D03*
D11*
X155702000Y-110871000D03*
D12*
X119990000Y-101981000D03*
D13*
X121990000Y-101981000D03*
D14*
X123990000Y-101981000D03*
D15*
X80305000Y-107442000D03*
D16*
X86305000Y-107442000D03*
D17*
X83305000Y-102742000D03*
D18*
X130890000Y-60071000D03*
X130890000Y-59121000D03*
X130890000Y-61021000D03*
X133270000Y-61021000D03*
X133270000Y-60071000D03*
X133270000Y-59121000D03*
X118491000Y-60132000D03*
X118491000Y-59182000D03*
X118491000Y-61082000D03*
X120871000Y-61082000D03*
X120871000Y-60132000D03*
X120871000Y-59182000D03*
D19*
X118263000Y-75946000D03*
X118263000Y-77216000D03*
X118263000Y-78486000D03*
X118263000Y-79756000D03*
X118263000Y-81026000D03*
X118263000Y-82296000D03*
X118263000Y-83566000D03*
X118263000Y-84836000D03*
X118263000Y-86106000D03*
X118263000Y-87376000D03*
X118263000Y-88646000D03*
X118263000Y-89916000D03*
X118263000Y-91186000D03*
X118263000Y-92456000D03*
D20*
X120028000Y-93706000D03*
X121298000Y-93706000D03*
X122568000Y-93706000D03*
X123838000Y-93706000D03*
X125108000Y-93706000D03*
X126378000Y-93706000D03*
X127648000Y-93706000D03*
X128918000Y-93706000D03*
X130188000Y-93706000D03*
X131458000Y-93706000D03*
X132728000Y-93706000D03*
X133998000Y-93706000D03*
D19*
X135763000Y-92456000D03*
X135763000Y-91186000D03*
X135763000Y-89916000D03*
X135763000Y-88646000D03*
X135763000Y-87376000D03*
X135763000Y-86106000D03*
X135763000Y-84836000D03*
X135763000Y-83566000D03*
X135763000Y-82296000D03*
X135763000Y-81026000D03*
X135763000Y-79756000D03*
X135763000Y-78486000D03*
X135763000Y-77216000D03*
X135763000Y-75946000D03*
D21*
X124113000Y-82266000D03*
X124113000Y-83666000D03*
X124113000Y-85066000D03*
X124113000Y-85066000D03*
X125513000Y-82266000D03*
X125513000Y-82266000D03*
X125513000Y-83666000D03*
X125513000Y-85066000D03*
X126913000Y-82266000D03*
X126913000Y-83666000D03*
X126913000Y-85066000D03*
D22*
X108585000Y-83566000D03*
X100635000Y-83566000D03*
X108585000Y-88066000D03*
X100635000Y-88066000D03*
X109131000Y-96937000D03*
X101181000Y-96937000D03*
X109131000Y-101437000D03*
X101181000Y-101437000D03*
D23*
X103648000Y-67183000D03*
X105648000Y-67183000D03*
X103775000Y-60960000D03*
X105775000Y-60960000D03*
X103775000Y-55245000D03*
X105775000Y-55245000D03*
X103664000Y-73914000D03*
X105664000Y-73914000D03*
X91472000Y-73787000D03*
X93472000Y-73787000D03*
X91345000Y-67183000D03*
X93345000Y-67183000D03*
X91329000Y-61214000D03*
X93329000Y-61214000D03*
X91202000Y-55372000D03*
X93202000Y-55372000D03*
X79772000Y-80899000D03*
X81772000Y-80899000D03*
X79772000Y-73787000D03*
X81772000Y-73787000D03*
X79772000Y-67183000D03*
X81772000Y-67183000D03*
X79661000Y-61214000D03*
X81661000Y-61214000D03*
X81772000Y-55245000D03*
X79772000Y-55245000D03*
D24*
X144810000Y-101285000D03*
X144810000Y-103185000D03*
X146685000Y-102235000D03*
X146685000Y-95123000D03*
X144810000Y-96073000D03*
X144810000Y-94173000D03*
D25*
X156527000Y-100203000D03*
X161227000Y-100203000D03*
X83947000Y-92456000D03*
X88647000Y-92456000D03*
D10*
X109855000Y-109113000D03*
X107315000Y-109113000D03*
X104775000Y-109113000D03*
D11*
X102235000Y-109113000D03*
X120142000Y-110129000D03*
D10*
X122682000Y-110129000D03*
D26*
X169545000Y-92207000D03*
D27*
X169545000Y-94747000D03*
X169545000Y-97287000D03*
X169545000Y-99827000D03*
X169545000Y-102367000D03*
D28*
X131300000Y-101981000D03*
X133350000Y-101981000D03*
D29*
X170561000Y-75819000D03*
X168486000Y-75819000D03*
X168634500Y-69342000D03*
X170709500Y-69342000D03*
X168634500Y-62611000D03*
X170709500Y-62611000D03*
X168783000Y-54737000D03*
X170858000Y-54737000D03*
X158517500Y-83820000D03*
X156442500Y-83820000D03*
X158644500Y-75946000D03*
X156569500Y-75946000D03*
X156675000Y-69215000D03*
X158750000Y-69215000D03*
X156675000Y-62484000D03*
X158750000Y-62484000D03*
X156675000Y-54864000D03*
X158750000Y-54864000D03*
X146220000Y-83947000D03*
X144145000Y-83947000D03*
X146220000Y-75946000D03*
X144145000Y-75946000D03*
X144123500Y-69215000D03*
X146198500Y-69215000D03*
X144123500Y-62611000D03*
X146198500Y-62611000D03*
X143869500Y-54864000D03*
X145944500Y-54864000D03*
D30*
X112141000Y-110363000D03*
X113284000Y-112940500D03*
X115824000Y-111633000D03*
X125349000Y-111125000D03*
X113030000Y-102526500D03*
X112141000Y-104940000D03*
X92075000Y-78740000D03*
X94234000Y-88265000D03*
X140753500Y-102743000D03*
X77761500Y-97917000D03*
X109220000Y-94958500D03*
X109093000Y-93180500D03*
X114173000Y-102743000D03*
X91948000Y-96393000D03*
X88011000Y-96393000D03*
X89408000Y-98298000D03*
X110490000Y-89027000D03*
X113030000Y-89535000D03*
X115824000Y-92329000D03*
X134239000Y-96012000D03*
X130941299Y-96007701D03*
X127889000Y-98933000D03*
X127889000Y-101473000D03*
X127254000Y-96863500D03*
X127571147Y-104076853D03*
X117348000Y-103288500D03*
X112268000Y-60452000D03*
X128143000Y-55626000D03*
X130556000Y-54102000D03*
X158369000Y-59309000D03*
X133731000Y-52832000D03*
X140589000Y-56007000D03*
X138176000Y-53594000D03*
X137611806Y-58374172D03*
X137160000Y-55753000D03*
X166624000Y-94869000D03*
X154055299Y-106421701D03*
X142113000Y-68580000D03*
X135128000Y-66929000D03*
X138811000Y-67183000D03*
X115443000Y-72644000D03*
X136525000Y-100584000D03*
X138684000Y-102235000D03*
X130937000Y-105589500D03*
X136729753Y-98012000D03*
X125857000Y-95414500D03*
X128905000Y-96996500D03*
X129032000Y-99060000D03*
X129032000Y-101600000D03*
X135509000Y-101473000D03*
X132207000Y-98298000D03*
X116205000Y-84836000D03*
X114803128Y-91148484D03*
X112776000Y-96393000D03*
X115697000Y-104939500D03*
X111252000Y-94107000D03*
X115443000Y-100203000D03*
X149225000Y-111379000D03*
X114300000Y-107569000D03*
X141859000Y-98425000D03*
X140499500Y-95377000D03*
X139192000Y-103632000D03*
X140081000Y-100203000D03*
X148971000Y-91313000D03*
X138620147Y-86677854D03*
X155575000Y-106426000D03*
X147828000Y-89535000D03*
X138811000Y-85598000D03*
X150368000Y-89408000D03*
X158242000Y-106299000D03*
X150749000Y-91567000D03*
X138684000Y-84201000D03*
X141351000Y-86741000D03*
X148336000Y-100673500D03*
X149256597Y-96797500D03*
X163322000Y-106172000D03*
X148336000Y-99060000D03*
X162941000Y-104558500D03*
X147320000Y-91186000D03*
X151638000Y-94996000D03*
X154559000Y-92964000D03*
X164846000Y-93218000D03*
X164846000Y-88011000D03*
X138303000Y-82550000D03*
X154051000Y-87630000D03*
X167640000Y-77597000D03*
X172936500Y-83820000D03*
X166497000Y-105664000D03*
X166497000Y-102870000D03*
X165608000Y-54991000D03*
X97028000Y-53594000D03*
X97790000Y-56134000D03*
X98552000Y-59436000D03*
X98552000Y-51980500D03*
X140589000Y-60325000D03*
X147320000Y-58801000D03*
X135255000Y-59563000D03*
X138430000Y-59436000D03*
X135509000Y-99911500D03*
X135510593Y-97535113D03*
X137541000Y-88646000D03*
X137922000Y-93472000D03*
X164084000Y-96266000D03*
X139319000Y-81534000D03*
X146812000Y-73279000D03*
X139319000Y-74930000D03*
X161925000Y-94869000D03*
X164084000Y-76073000D03*
X159258000Y-92583000D03*
X161671000Y-65151000D03*
X145542000Y-66294000D03*
X125095000Y-55626000D03*
X122174000Y-57531000D03*
X136164881Y-61251500D03*
X139573000Y-92426631D03*
X153035000Y-90424000D03*
X154559000Y-76327000D03*
X154686000Y-78194500D03*
X161163000Y-75565000D03*
X159766000Y-78994000D03*
X148082000Y-76454000D03*
X147955000Y-78232000D03*
X151003000Y-84963000D03*
X152781000Y-84963000D03*
X152616500Y-77470000D03*
X150749000Y-77470000D03*
X81534000Y-94615000D03*
X111252000Y-102235000D03*
X78486000Y-99695000D03*
X103505000Y-58674000D03*
X93980000Y-97028000D03*
X86868000Y-100457000D03*
X112649000Y-79756000D03*
X113538000Y-65278000D03*
X98175299Y-106040701D03*
X137597994Y-99911500D03*
X125349000Y-105441500D03*
X93472000Y-94488000D03*
X113919000Y-109220000D03*
X98044000Y-112268000D03*
X91821000Y-100584000D03*
X126873000Y-101092000D03*
X148209000Y-108458000D03*
X140462000Y-93345000D03*
X123952000Y-96393000D03*
X137033000Y-61976000D03*
X125857000Y-101346000D03*
X120777000Y-97409000D03*
X116586000Y-80301500D03*
X99022500Y-89662000D03*
X114427000Y-88138000D03*
X115824000Y-75819000D03*
X110617000Y-75946000D03*
X107188000Y-75946000D03*
X116713000Y-61087000D03*
X127889000Y-62230000D03*
X113635625Y-58509027D03*
X94869000Y-89789000D03*
X99314000Y-76708000D03*
X102235000Y-63881000D03*
X112903000Y-75438000D03*
X107950000Y-77089000D03*
X102362000Y-69342000D03*
X84328000Y-86233000D03*
X106807000Y-70739000D03*
X110490000Y-71755000D03*
X110998000Y-78740000D03*
X110490000Y-86614000D03*
X107061000Y-64643000D03*
X107950000Y-68707000D03*
X111633000Y-80645000D03*
X111633000Y-84328000D03*
X141097000Y-97663000D03*
X112522000Y-91694000D03*
X97028000Y-82677000D03*
X138684000Y-97028000D03*
X94615000Y-82841500D03*
X98298000Y-91567000D03*
X89789000Y-82677000D03*
X141986000Y-104013000D03*
X117094000Y-96393000D03*
X87376000Y-82677000D03*
X85090000Y-65532000D03*
X135636000Y-58293000D03*
X83439000Y-68199000D03*
X85852000Y-57785000D03*
X78994000Y-64516000D03*
X85090000Y-82677000D03*
X129794000Y-102870000D03*
X83439000Y-64262000D03*
X83439000Y-55245000D03*
X108839000Y-57023000D03*
X96520000Y-102997000D03*
X79243701Y-75433701D03*
X120777000Y-55626000D03*
X79121000Y-71120000D03*
D31*
X110891000Y-109113000D02*
X109855000Y-109113000D01*
X114591500Y-111633000D02*
X113284000Y-112940500D01*
X115824000Y-111633000D02*
X114591500Y-111633000D01*
X133477000Y-109728000D02*
X132057000Y-111148000D01*
X132057000Y-111148000D02*
X125372000Y-111148000D01*
X125372000Y-111148000D02*
X125349000Y-111125000D01*
X112141000Y-110363000D02*
X110891000Y-109113000D01*
X113030000Y-102526500D02*
X113030000Y-101219000D01*
X113030000Y-101219000D02*
X113792000Y-100457000D01*
X109855000Y-107226000D02*
X112141000Y-104940000D01*
X110272000Y-96937000D02*
X113792000Y-100457000D01*
X109855000Y-109113000D02*
X109855000Y-107226000D01*
X113792000Y-100457000D02*
X115443000Y-102108000D01*
X107315000Y-109113000D02*
X107315000Y-106553000D01*
X107315000Y-106553000D02*
X106680000Y-105918000D01*
X106045000Y-103759000D02*
X112395000Y-103759000D01*
X106680000Y-105918000D02*
X105664000Y-105918000D01*
X113575000Y-107268695D02*
X113575000Y-107869305D01*
X105664000Y-105918000D02*
X105029000Y-105283000D01*
X113792000Y-105156000D02*
X113792000Y-107051695D01*
X113792000Y-107051695D02*
X113575000Y-107268695D01*
X105029000Y-105283000D02*
X105029000Y-104775000D01*
X105029000Y-104775000D02*
X106045000Y-103759000D01*
X112395000Y-103759000D02*
X113792000Y-105156000D01*
X113575000Y-107869305D02*
X113792000Y-108086305D01*
X113792000Y-108585000D02*
X113157000Y-109220000D01*
X113792000Y-108086305D02*
X113792000Y-108585000D01*
X113157000Y-109220000D02*
X113919000Y-109220000D01*
X111633000Y-84328000D02*
X111633000Y-89662000D01*
X94742000Y-97790000D02*
X99187000Y-102235000D01*
X111633000Y-89662000D02*
X110744000Y-90551000D01*
X94742000Y-91821000D02*
X94742000Y-97790000D01*
X110744000Y-90551000D02*
X96012000Y-90551000D01*
X96012000Y-90551000D02*
X94742000Y-91821000D01*
X99187000Y-102235000D02*
X99187000Y-102362000D01*
X99187000Y-102362000D02*
X100076000Y-103251000D01*
X114418195Y-104013500D02*
X119957500Y-104013500D01*
X100076000Y-103251000D02*
X113655695Y-103251000D01*
X113655695Y-103251000D02*
X114418195Y-104013500D01*
X119957500Y-104013500D02*
X121990000Y-101981000D01*
X92329000Y-69596000D02*
X93345000Y-68580000D01*
X93345000Y-68580000D02*
X93345000Y-67183000D01*
X92075000Y-78740000D02*
X90297000Y-76962000D01*
X90297000Y-76962000D02*
X90297000Y-70231000D01*
X90932000Y-69596000D02*
X92329000Y-69596000D01*
X90297000Y-70231000D02*
X90932000Y-69596000D01*
X77761500Y-97917000D02*
X77761500Y-88607104D01*
X87630000Y-84016000D02*
X89985000Y-84016000D01*
X144810000Y-101285000D02*
X144333000Y-101285000D01*
X144333000Y-101285000D02*
X143129000Y-102489000D01*
X77761500Y-88607104D02*
X78867000Y-87501604D01*
X142875000Y-102743000D02*
X140753500Y-102743000D01*
X143129000Y-102489000D02*
X142875000Y-102743000D01*
X78867000Y-87501604D02*
X78867000Y-84963000D01*
X78867000Y-84963000D02*
X79814000Y-84016000D01*
X89985000Y-84016000D02*
X94234000Y-88265000D01*
X79814000Y-84016000D02*
X87630000Y-84016000D01*
X142240000Y-104013000D02*
X143510000Y-105283000D01*
X143510000Y-105283000D02*
X144399000Y-105283000D01*
X141986000Y-104013000D02*
X142240000Y-104013000D01*
X144810000Y-104872000D02*
X144810000Y-103185000D01*
X144399000Y-105283000D02*
X144810000Y-104872000D01*
X139192000Y-103632000D02*
X140716000Y-105156000D01*
X143198000Y-105733000D02*
X144585396Y-105733000D01*
X140716000Y-105156000D02*
X142621000Y-105156000D01*
X142621000Y-105156000D02*
X143198000Y-105733000D01*
X144585396Y-105733000D02*
X145416396Y-104902000D01*
X148079208Y-104902000D02*
X154048208Y-110871000D01*
X145416396Y-104902000D02*
X148079208Y-104902000D01*
X154048208Y-110871000D02*
X155702000Y-110871000D01*
X143637000Y-109728000D02*
X146050000Y-107315000D01*
X146050000Y-107315000D02*
X148091305Y-107315000D01*
X148091305Y-107315000D02*
X149225000Y-108448695D01*
X149225000Y-108448695D02*
X149225000Y-111379000D01*
X125476000Y-113284000D02*
X122682000Y-110490000D01*
X122682000Y-110490000D02*
X122682000Y-110129000D01*
X148209000Y-108458000D02*
X147828000Y-108839000D01*
X147828000Y-112395000D02*
X146939000Y-113284000D01*
X147828000Y-108839000D02*
X147828000Y-112395000D01*
X146939000Y-113284000D02*
X125476000Y-113284000D01*
X141097000Y-109728000D02*
X141097000Y-107061000D01*
X141097000Y-107061000D02*
X135509000Y-101473000D01*
X138557000Y-109728000D02*
X133694000Y-104865000D01*
X133694000Y-104865000D02*
X131662000Y-104865000D01*
X130392000Y-103595000D02*
X129122000Y-103595000D01*
X129122000Y-103595000D02*
X129032000Y-103505000D01*
X131662000Y-104865000D02*
X130392000Y-103595000D01*
X129032000Y-103505000D02*
X129032000Y-101600000D01*
X136017000Y-109728000D02*
X131878500Y-105589500D01*
X131878500Y-105589500D02*
X130937000Y-105589500D01*
X128905000Y-104385401D02*
X128397000Y-103877401D01*
X128397000Y-103877401D02*
X128397000Y-102997000D01*
X128905000Y-104902000D02*
X128905000Y-104385401D01*
X130937000Y-109728000D02*
X130937000Y-106934000D01*
X130937000Y-106934000D02*
X128905000Y-104902000D01*
X128397000Y-102997000D02*
X127889000Y-102489000D01*
X127889000Y-102489000D02*
X127889000Y-101473000D01*
X130411000Y-102870000D02*
X131300000Y-101981000D01*
X129794000Y-102870000D02*
X130411000Y-102870000D01*
X127571147Y-104076853D02*
X128143000Y-104648706D01*
X128143000Y-104648706D02*
X128143000Y-109474000D01*
X128143000Y-109474000D02*
X128397000Y-109728000D01*
X125349000Y-105441500D02*
X126307000Y-104483500D01*
X126873000Y-101852604D02*
X126873000Y-101092000D01*
X126307000Y-104483500D02*
X126307000Y-102418604D01*
X126307000Y-102418604D02*
X126873000Y-101852604D01*
X144810000Y-103185000D02*
X144968000Y-103185000D01*
X144968000Y-103185000D02*
X146050000Y-104267000D01*
X149546604Y-105733000D02*
X153366598Y-105733000D01*
X146050000Y-104267000D02*
X148080604Y-104267000D01*
X148080604Y-104267000D02*
X149546604Y-105733000D01*
X153366598Y-105733000D02*
X154055299Y-106421701D01*
X149860000Y-64135000D02*
X151891500Y-66166500D01*
X152908000Y-91322305D02*
X152908000Y-97028000D01*
X143002000Y-101473000D02*
X142748000Y-101727000D01*
X114681000Y-64135000D02*
X149860000Y-64135000D01*
X151891500Y-66166500D02*
X151891500Y-90305805D01*
X113538000Y-65278000D02*
X114681000Y-64135000D01*
X151891500Y-90305805D02*
X152908000Y-91322305D01*
X137872994Y-99636500D02*
X137597994Y-99911500D01*
X152908000Y-97028000D02*
X149987000Y-99949000D01*
X143383000Y-99949000D02*
X143002000Y-100330000D01*
X149987000Y-99949000D02*
X143383000Y-99949000D01*
X143002000Y-100330000D02*
X143002000Y-101473000D01*
X140579695Y-101727000D02*
X138484893Y-99632198D01*
X142748000Y-101727000D02*
X140579695Y-101727000D01*
X138484893Y-99632198D02*
X138113198Y-99632198D01*
X138113198Y-99632198D02*
X138108896Y-99636500D01*
X138108896Y-99636500D02*
X137872994Y-99636500D01*
X120142000Y-110129000D02*
X120142000Y-106172000D01*
X120142000Y-106172000D02*
X122428000Y-103886000D01*
X122428000Y-103886000D02*
X125095000Y-103886000D01*
X125095000Y-103886000D02*
X125857000Y-103124000D01*
X125857000Y-103124000D02*
X125857000Y-101346000D01*
X120142000Y-110129000D02*
X120122000Y-110109000D01*
X112903000Y-112014000D02*
X112014000Y-112903000D01*
X120122000Y-110109000D02*
X113792000Y-110109000D01*
X113792000Y-110109000D02*
X112903000Y-110998000D01*
X112903000Y-110998000D02*
X112903000Y-112014000D01*
X112014000Y-112903000D02*
X99949000Y-112903000D01*
X99949000Y-112903000D02*
X98044000Y-110998000D01*
X98044000Y-110998000D02*
X97409000Y-110998000D01*
X79375000Y-112649000D02*
X78232000Y-111506000D01*
X78232000Y-111506000D02*
X78232000Y-109515000D01*
X97409000Y-110998000D02*
X95758000Y-112649000D01*
X95758000Y-112649000D02*
X79375000Y-112649000D01*
X78232000Y-109515000D02*
X80305000Y-107442000D01*
X104775000Y-109113000D02*
X104775000Y-106299000D01*
X104775000Y-106299000D02*
X103886000Y-105410000D01*
X100584000Y-105791000D02*
X100584000Y-106172000D01*
X103886000Y-105410000D02*
X100965000Y-105410000D01*
X100965000Y-105410000D02*
X100584000Y-105791000D01*
X100584000Y-106172000D02*
X100203000Y-106553000D01*
X100203000Y-106553000D02*
X98687598Y-106553000D01*
X98687598Y-106553000D02*
X98175299Y-106040701D01*
X102235000Y-109113000D02*
X100125000Y-107003000D01*
X100125000Y-107003000D02*
X97351000Y-107003000D01*
X97351000Y-107003000D02*
X96520000Y-106172000D01*
X96520000Y-106172000D02*
X96520000Y-102997000D01*
X138684000Y-102235000D02*
X138684000Y-101346000D01*
X138684000Y-101346000D02*
X137974500Y-100636500D01*
X137974500Y-100636500D02*
X136577500Y-100636500D01*
X136577500Y-100636500D02*
X136525000Y-100584000D01*
X113792000Y-87503000D02*
X113157000Y-86868000D01*
X114427000Y-88138000D02*
X113792000Y-87503000D01*
X112083000Y-89212000D02*
X112083000Y-90190500D01*
X113792000Y-87503000D02*
X112083000Y-89212000D01*
X112083000Y-90190500D02*
X109093000Y-93180500D01*
X109220000Y-94958500D02*
X109220000Y-96848000D01*
X109220000Y-96848000D02*
X109131000Y-96937000D01*
X98298000Y-91567000D02*
X100965000Y-94234000D01*
X110353695Y-94234000D02*
X111242695Y-95123000D01*
X100965000Y-94234000D02*
X110353695Y-94234000D01*
X135208695Y-99186500D02*
X137922500Y-99186500D01*
X111242695Y-95123000D02*
X113801604Y-95123000D01*
X113801604Y-95123000D02*
X118304604Y-99626000D01*
X126432305Y-99626000D02*
X127263305Y-100457000D01*
X127263305Y-100457000D02*
X133938195Y-100457000D01*
X118304604Y-99626000D02*
X126432305Y-99626000D01*
X133938195Y-100457000D02*
X135208695Y-99186500D01*
X137922500Y-99186500D02*
X142936000Y-94173000D01*
X142936000Y-94173000D02*
X144810000Y-94173000D01*
X113157000Y-86868000D02*
X113157000Y-84826695D01*
X113157000Y-84826695D02*
X111896305Y-83566000D01*
X111896305Y-83566000D02*
X108585000Y-83566000D01*
X88011000Y-96393000D02*
X88647000Y-95757000D01*
X88647000Y-95757000D02*
X88647000Y-92456000D01*
X117348000Y-103288500D02*
X117221000Y-103161500D01*
X117221000Y-103161500D02*
X117221000Y-102108000D01*
X89408000Y-98298000D02*
X90043000Y-98298000D01*
X90043000Y-98298000D02*
X91948000Y-96393000D01*
X114173000Y-102743000D02*
X116586000Y-102743000D01*
X116586000Y-102743000D02*
X117221000Y-102108000D01*
X98044000Y-112268000D02*
X97028000Y-113284000D01*
X97028000Y-113284000D02*
X78740000Y-113284000D01*
X78740000Y-113284000D02*
X77597000Y-112141000D01*
X77597000Y-112141000D02*
X77597000Y-102235000D01*
X77597000Y-102235000D02*
X81153000Y-98679000D01*
X81153000Y-98679000D02*
X87004305Y-98679000D01*
X87004305Y-98679000D02*
X96021305Y-89662000D01*
X96021305Y-89662000D02*
X99022500Y-89662000D01*
X91821000Y-100584000D02*
X92641000Y-99764000D01*
X92641000Y-99764000D02*
X92641000Y-97730604D01*
X92641000Y-97730604D02*
X92964000Y-97407604D01*
X92964000Y-97407604D02*
X92964000Y-94996000D01*
X92964000Y-94996000D02*
X93472000Y-94488000D01*
X134239000Y-96012000D02*
X134747000Y-96012000D01*
X134747000Y-96012000D02*
X135763000Y-94996000D01*
X135763000Y-94996000D02*
X135763000Y-92456000D01*
X115824000Y-91144051D02*
X115824000Y-92329000D01*
X113030000Y-89535000D02*
X114214949Y-89535000D01*
X109529000Y-88066000D02*
X110490000Y-89027000D01*
X114214949Y-89535000D02*
X115824000Y-91144051D01*
X108585000Y-88066000D02*
X109529000Y-88066000D01*
X120028000Y-93706000D02*
X117663000Y-93706000D01*
X117188000Y-92423000D02*
X116713000Y-91948000D01*
X117663000Y-93706000D02*
X117188000Y-93231000D01*
X116713000Y-91948000D02*
X116713000Y-87630000D01*
X117188000Y-93231000D02*
X117188000Y-92423000D01*
X116713000Y-87630000D02*
X109220000Y-80137000D01*
X109220000Y-80137000D02*
X97822000Y-80137000D01*
X97822000Y-80137000D02*
X91472000Y-73787000D01*
X127889000Y-98933000D02*
X127889000Y-97498500D01*
X127889000Y-97498500D02*
X127254000Y-96863500D01*
X130941299Y-96007701D02*
X131458000Y-95491000D01*
X131458000Y-95491000D02*
X131458000Y-93706000D01*
X119482000Y-101473000D02*
X119990000Y-101981000D01*
X117221000Y-102108000D02*
X117856000Y-101473000D01*
X117856000Y-101473000D02*
X119482000Y-101473000D01*
X115477000Y-63661000D02*
X112268000Y-60452000D01*
X145148500Y-63661000D02*
X115477000Y-63661000D01*
X146198500Y-62611000D02*
X145148500Y-63661000D01*
X158369000Y-59309000D02*
X158750000Y-59690000D01*
X130890000Y-60071000D02*
X129970000Y-60071000D01*
X131826000Y-52832000D02*
X133731000Y-52832000D01*
X128143000Y-58244000D02*
X128143000Y-55626000D01*
X129970000Y-60071000D02*
X128143000Y-58244000D01*
X130556000Y-54102000D02*
X131826000Y-52832000D01*
X158750000Y-59690000D02*
X158750000Y-62484000D01*
X138176000Y-53594000D02*
X133731000Y-53594000D01*
X145944500Y-55858500D02*
X145796000Y-56007000D01*
X145944500Y-54864000D02*
X145944500Y-55858500D01*
X145796000Y-56007000D02*
X140589000Y-56007000D01*
X129286000Y-54864000D02*
X130890000Y-56468000D01*
X128270000Y-53848000D02*
X129286000Y-54864000D01*
X133731000Y-53594000D02*
X131445000Y-55880000D01*
X131445000Y-55880000D02*
X130302000Y-55880000D01*
X130302000Y-55880000D02*
X129286000Y-54864000D01*
X143869500Y-54864000D02*
X139573000Y-54864000D01*
X137611806Y-58374172D02*
X137611806Y-61397194D01*
X139573000Y-54864000D02*
X138049000Y-54864000D01*
X137611806Y-61397194D02*
X137033000Y-61976000D01*
X138049000Y-54864000D02*
X137160000Y-55753000D01*
X126913000Y-82266000D02*
X133233000Y-75946000D01*
X133233000Y-75946000D02*
X135763000Y-75946000D01*
X166624000Y-94869000D02*
X166746000Y-94747000D01*
X166746000Y-94747000D02*
X169545000Y-94747000D01*
X142113000Y-68580000D02*
X143488500Y-68580000D01*
X118263000Y-77216000D02*
X116195695Y-77216000D01*
X115099000Y-76119305D02*
X115099000Y-72988000D01*
X116195695Y-77216000D02*
X115099000Y-76119305D01*
X115099000Y-72988000D02*
X115443000Y-72644000D01*
X135128000Y-66929000D02*
X138557000Y-66929000D01*
X138557000Y-66929000D02*
X138811000Y-67183000D01*
X143488500Y-68580000D02*
X144123500Y-69215000D01*
X125513000Y-82266000D02*
X126913000Y-82266000D01*
X125513000Y-83666000D02*
X125513000Y-82266000D01*
X126913000Y-83666000D02*
X125513000Y-83666000D01*
X126913000Y-85066000D02*
X126913000Y-83666000D01*
X125513000Y-85066000D02*
X126913000Y-85066000D01*
X124113000Y-85066000D02*
X125513000Y-85066000D01*
X124113000Y-83666000D02*
X124113000Y-85066000D01*
X124113000Y-81661000D02*
X124113000Y-82266000D01*
X124113000Y-80796000D02*
X124113000Y-81661000D01*
X124113000Y-81661000D02*
X124113000Y-83666000D01*
X118263000Y-75946000D02*
X119263000Y-75946000D01*
X119263000Y-75946000D02*
X124113000Y-80796000D01*
X138684000Y-97028000D02*
X138684000Y-97083058D01*
X137030558Y-98736500D02*
X135022299Y-98736500D01*
X133936799Y-99822000D02*
X127264701Y-99822000D01*
X138684000Y-97083058D02*
X137030558Y-98736500D01*
X135022299Y-98736500D02*
X133936799Y-99822000D01*
X126618701Y-99176000D02*
X121401000Y-99176000D01*
X121401000Y-99176000D02*
X120650000Y-98425000D01*
X120650000Y-98425000D02*
X117983000Y-98425000D01*
X127264701Y-99822000D02*
X126618701Y-99176000D01*
X113411000Y-91694000D02*
X112522000Y-91694000D01*
X117983000Y-98425000D02*
X114808000Y-95250000D01*
X114808000Y-95250000D02*
X114808000Y-93091000D01*
X114808000Y-93091000D02*
X113411000Y-91694000D01*
X135510593Y-97535113D02*
X135510593Y-97026407D01*
X135510593Y-97026407D02*
X137922000Y-94615000D01*
X137922000Y-94615000D02*
X137922000Y-93472000D01*
X136729753Y-98012000D02*
X136058305Y-98012000D01*
X135809305Y-98261000D02*
X133821000Y-98261000D01*
X136058305Y-98012000D02*
X135809305Y-98261000D01*
X133821000Y-98261000D02*
X132728000Y-97168000D01*
X132728000Y-97168000D02*
X132728000Y-93706000D01*
X129032000Y-97123500D02*
X128905000Y-96996500D01*
X129032000Y-99060000D02*
X129032000Y-97123500D01*
X125857000Y-95414500D02*
X125108000Y-94665500D01*
X125108000Y-94665500D02*
X125108000Y-93706000D01*
X132207000Y-98298000D02*
X130048000Y-96139000D01*
X124723305Y-96139000D02*
X123838000Y-95253695D01*
X130048000Y-96139000D02*
X124723305Y-96139000D01*
X123838000Y-95253695D02*
X123838000Y-93706000D01*
X135509000Y-101473000D02*
X135763000Y-101473000D01*
X135509000Y-99911500D02*
X133947500Y-101473000D01*
X133947500Y-101473000D02*
X133858000Y-101473000D01*
X133858000Y-101473000D02*
X133350000Y-101981000D01*
X114803128Y-91148484D02*
X114384612Y-91567000D01*
X113920396Y-91567000D02*
X113322396Y-90969000D01*
X113322396Y-90969000D02*
X112221695Y-90969000D01*
X114384612Y-91567000D02*
X113920396Y-91567000D01*
X111252000Y-91938695D02*
X111252000Y-94107000D01*
X112221695Y-90969000D02*
X111252000Y-91938695D01*
X116205000Y-84836000D02*
X117475000Y-83566000D01*
X117475000Y-83566000D02*
X118263000Y-83566000D01*
X114300000Y-107569000D02*
X115697000Y-106172000D01*
X115443000Y-100203000D02*
X112776000Y-97536000D01*
X115697000Y-106172000D02*
X115697000Y-104939500D01*
X112776000Y-97536000D02*
X112776000Y-96393000D01*
X141859000Y-98425000D02*
X140081000Y-100203000D01*
X140499500Y-95377000D02*
X140499500Y-94830104D01*
X141605000Y-93724604D02*
X141605000Y-91368000D01*
X140499500Y-94830104D02*
X141605000Y-93724604D01*
X141605000Y-91368000D02*
X136343000Y-86106000D01*
X136343000Y-86106000D02*
X135763000Y-86106000D01*
X112903000Y-75438000D02*
X112903000Y-67310000D01*
X148082000Y-95123000D02*
X146685000Y-95123000D01*
X112903000Y-67310000D02*
X115316000Y-64897000D01*
X146558000Y-91567000D02*
X148717000Y-93726000D01*
X115316000Y-64897000D02*
X139319000Y-64897000D01*
X140335000Y-65913000D02*
X140335000Y-89154000D01*
X139319000Y-64897000D02*
X140335000Y-65913000D01*
X140335000Y-89154000D02*
X142748000Y-91567000D01*
X142748000Y-91567000D02*
X146558000Y-91567000D01*
X148717000Y-93726000D02*
X148717000Y-94488000D01*
X148717000Y-94488000D02*
X148082000Y-95123000D01*
X148971000Y-91313000D02*
X148971000Y-90678000D01*
X136763000Y-84836000D02*
X135763000Y-84836000D01*
X158242000Y-110871000D02*
X158242000Y-109093000D01*
X138604854Y-86677854D02*
X136763000Y-84836000D01*
X148971000Y-90678000D02*
X147828000Y-89535000D01*
X138620147Y-86677854D02*
X138604854Y-86677854D01*
X158242000Y-109093000D02*
X155575000Y-106426000D01*
X160782000Y-108839000D02*
X158242000Y-106299000D01*
X150749000Y-89789000D02*
X150368000Y-89408000D01*
X150749000Y-91567000D02*
X150749000Y-89789000D01*
X160782000Y-110871000D02*
X160782000Y-108839000D01*
X138811000Y-85598000D02*
X136779000Y-83566000D01*
X136779000Y-83566000D02*
X135763000Y-83566000D01*
X162941000Y-104558500D02*
X162649500Y-104267000D01*
X148209000Y-102362000D02*
X148209000Y-100800500D01*
X162649500Y-104267000D02*
X150114000Y-104267000D01*
X150114000Y-104267000D02*
X148209000Y-102362000D01*
X148209000Y-100800500D02*
X148336000Y-100673500D01*
X148336000Y-97718097D02*
X149256597Y-96797500D01*
X138684000Y-84201000D02*
X136779000Y-82296000D01*
X163322000Y-110871000D02*
X163322000Y-106172000D01*
X147320000Y-91186000D02*
X142875000Y-86741000D01*
X142875000Y-86741000D02*
X141351000Y-86741000D01*
X148336000Y-99060000D02*
X148336000Y-97718097D01*
X136779000Y-82296000D02*
X135763000Y-82296000D01*
X101346000Y-55245000D02*
X100711000Y-54610000D01*
X100711000Y-54610000D02*
X100711000Y-53721000D01*
X103775000Y-55245000D02*
X101346000Y-55245000D01*
X166196695Y-104939000D02*
X165852695Y-105283000D01*
X166797305Y-104939000D02*
X166196695Y-104939000D01*
X100711000Y-53721000D02*
X102362000Y-52070000D01*
X172212000Y-103759000D02*
X170688000Y-105283000D01*
X171958000Y-52070000D02*
X172212000Y-52324000D01*
X102362000Y-52070000D02*
X171958000Y-52070000D01*
X149733000Y-105283000D02*
X146685000Y-102235000D01*
X170688000Y-105283000D02*
X167141305Y-105283000D01*
X167141305Y-105283000D02*
X166797305Y-104939000D01*
X165852695Y-105283000D02*
X149733000Y-105283000D01*
X172212000Y-52324000D02*
X172212000Y-103759000D01*
X150561000Y-96073000D02*
X144810000Y-96073000D01*
X151638000Y-94996000D02*
X150561000Y-96073000D01*
X169545000Y-92207000D02*
X169159000Y-91821000D01*
X155702000Y-91821000D02*
X154559000Y-92964000D01*
X169159000Y-91821000D02*
X155956000Y-91821000D01*
X155956000Y-91821000D02*
X155702000Y-91821000D01*
X164846000Y-88011000D02*
X163703000Y-86868000D01*
X163703000Y-86868000D02*
X154813000Y-86868000D01*
X154813000Y-86868000D02*
X154051000Y-87630000D01*
X163359000Y-94705000D02*
X164846000Y-93218000D01*
X163359000Y-96566305D02*
X163359000Y-94705000D01*
X166619695Y-99827000D02*
X163359000Y-96566305D01*
X169545000Y-99827000D02*
X166619695Y-99827000D01*
X136779000Y-81026000D02*
X135763000Y-81026000D01*
X138303000Y-82550000D02*
X136779000Y-81026000D01*
X172936500Y-106336500D02*
X172936500Y-83820000D01*
X167640000Y-77597000D02*
X167640000Y-76665000D01*
X168402000Y-110871000D02*
X172936500Y-106336500D01*
X167640000Y-76665000D02*
X168486000Y-75819000D01*
X169545000Y-102367000D02*
X167000000Y-102367000D01*
X167000000Y-102367000D02*
X166497000Y-102870000D01*
X166497000Y-105664000D02*
X165862000Y-106299000D01*
X165862000Y-106299000D02*
X165862000Y-110871000D01*
X159766000Y-78994000D02*
X160655000Y-79883000D01*
X160655000Y-79883000D02*
X166497000Y-79883000D01*
X166497000Y-79883000D02*
X170561000Y-75819000D01*
X161163000Y-75565000D02*
X160528000Y-74930000D01*
X160528000Y-74930000D02*
X159660500Y-74930000D01*
X159660500Y-74930000D02*
X158644500Y-75946000D01*
X139573000Y-92426631D02*
X139543631Y-92456000D01*
X139543631Y-92456000D02*
X135763000Y-92456000D01*
X140462000Y-93345000D02*
X140462000Y-91821000D01*
X140462000Y-91821000D02*
X138557000Y-89916000D01*
X138557000Y-89916000D02*
X135763000Y-89916000D01*
X112649000Y-79756000D02*
X113919000Y-81026000D01*
X113919000Y-81026000D02*
X118263000Y-81026000D01*
X117131500Y-79756000D02*
X118263000Y-79756000D01*
X116586000Y-80301500D02*
X117131500Y-79756000D01*
X115951000Y-75946000D02*
X118263000Y-75946000D01*
X115824000Y-75819000D02*
X115951000Y-75946000D01*
X79243701Y-75433701D02*
X79772000Y-74905402D01*
X79772000Y-74905402D02*
X79772000Y-73787000D01*
X164084000Y-76073000D02*
X164084000Y-75057000D01*
X162814000Y-73787000D02*
X162814000Y-72771000D01*
X158496000Y-72263000D02*
X156675000Y-70442000D01*
X162814000Y-72771000D02*
X162306000Y-72263000D01*
X164084000Y-75057000D02*
X162814000Y-73787000D01*
X156675000Y-70442000D02*
X156675000Y-69215000D01*
X162306000Y-72263000D02*
X158496000Y-72263000D01*
X165608000Y-54991000D02*
X166116000Y-55499000D01*
X166116000Y-55499000D02*
X168021000Y-55499000D01*
X168021000Y-55499000D02*
X168783000Y-54737000D01*
X109131000Y-96937000D02*
X110272000Y-96937000D01*
X115443000Y-102108000D02*
X116459000Y-102108000D01*
X116459000Y-102108000D02*
X118491000Y-100076000D01*
X118491000Y-100076000D02*
X122936000Y-100076000D01*
X122936000Y-100076000D02*
X123990000Y-101130000D01*
X123990000Y-101130000D02*
X123990000Y-101981000D01*
X97028000Y-53594000D02*
X97028000Y-53504500D01*
X97028000Y-53504500D02*
X98552000Y-51980500D01*
X98552000Y-56896000D02*
X97790000Y-56134000D01*
X98552000Y-59436000D02*
X98552000Y-56896000D01*
X156675000Y-62484000D02*
X153797000Y-62484000D01*
X133270000Y-58754000D02*
X133270000Y-59121000D01*
X153797000Y-62484000D02*
X148082000Y-56769000D01*
X148082000Y-56769000D02*
X135255000Y-56769000D01*
X135255000Y-56769000D02*
X133270000Y-58754000D01*
X135255000Y-59563000D02*
X134953604Y-59864396D01*
X134953604Y-59864396D02*
X134953604Y-59943792D01*
X134953604Y-59943792D02*
X133876396Y-61021000D01*
X133876396Y-61021000D02*
X133270000Y-61021000D01*
X140589000Y-60325000D02*
X139319000Y-60325000D01*
X139319000Y-60325000D02*
X138430000Y-59436000D01*
X158750000Y-69215000D02*
X148336000Y-58801000D01*
X148336000Y-58801000D02*
X147320000Y-58801000D01*
X135636000Y-58293000D02*
X136398000Y-59055000D01*
X136398000Y-59055000D02*
X136398000Y-59944000D01*
X136398000Y-59944000D02*
X135321000Y-61021000D01*
X135321000Y-61021000D02*
X133270000Y-61021000D01*
X136906000Y-58537695D02*
X135936305Y-57568000D01*
X136164881Y-61066119D02*
X136906000Y-60325000D01*
X136164881Y-61251500D02*
X136164881Y-61066119D01*
X136906000Y-60325000D02*
X136906000Y-58537695D01*
X135936305Y-57568000D02*
X135335695Y-57568000D01*
X137541000Y-88646000D02*
X135763000Y-88646000D01*
X135763000Y-79756000D02*
X137541000Y-79756000D01*
X137541000Y-79756000D02*
X139319000Y-81534000D01*
X164084000Y-96266000D02*
X168524000Y-96266000D01*
X168524000Y-96266000D02*
X169545000Y-97287000D01*
X146812000Y-73279000D02*
X147701000Y-74168000D01*
X138303000Y-75946000D02*
X139319000Y-74930000D01*
X135763000Y-75946000D02*
X138303000Y-75946000D01*
X147701000Y-74168000D02*
X147701000Y-75184000D01*
X147701000Y-75184000D02*
X146939000Y-75946000D01*
X146939000Y-75946000D02*
X146220000Y-75946000D01*
X161925000Y-94869000D02*
X161227000Y-95567000D01*
X161227000Y-95567000D02*
X161227000Y-100203000D01*
X161671000Y-65151000D02*
X161671000Y-62992000D01*
X161671000Y-62992000D02*
X160528000Y-61849000D01*
X160528000Y-61849000D02*
X159385000Y-61849000D01*
X159385000Y-61849000D02*
X158750000Y-62484000D01*
X156527000Y-100203000D02*
X156527000Y-95314000D01*
X156527000Y-95314000D02*
X159258000Y-92583000D01*
X170858000Y-54737000D02*
X170858000Y-62462500D01*
X170858000Y-62462500D02*
X170709500Y-62611000D01*
X170858000Y-54737000D02*
X169808000Y-53687000D01*
X169808000Y-53687000D02*
X159927000Y-53687000D01*
X159927000Y-53687000D02*
X158750000Y-54864000D01*
X145944500Y-54864000D02*
X146994500Y-55914000D01*
X146994500Y-55914000D02*
X157700000Y-55914000D01*
X157700000Y-55914000D02*
X158750000Y-54864000D01*
X156675000Y-54864000D02*
X155405000Y-53594000D01*
X155405000Y-53594000D02*
X145139500Y-53594000D01*
X145139500Y-53594000D02*
X143869500Y-54864000D01*
X125095000Y-58421396D02*
X125095000Y-55626000D01*
X122434396Y-61082000D02*
X125095000Y-58421396D01*
X120871000Y-61082000D02*
X122434396Y-61082000D01*
X145542000Y-66294000D02*
X146198500Y-66950500D01*
X146198500Y-66950500D02*
X146198500Y-69215000D01*
X122174000Y-57531000D02*
X122809000Y-58166000D01*
X122809000Y-59114000D02*
X121791000Y-60132000D01*
X122809000Y-58166000D02*
X122809000Y-59114000D01*
X121791000Y-60132000D02*
X120871000Y-60132000D01*
X134503604Y-59757396D02*
X134503604Y-58400091D01*
X134503604Y-58400091D02*
X135335695Y-57568000D01*
X134190000Y-60071000D02*
X134503604Y-59757396D01*
X156675000Y-69215000D02*
X145028000Y-57568000D01*
X145028000Y-57568000D02*
X135335695Y-57568000D01*
X134366000Y-58537695D02*
X134366000Y-59895000D01*
X135335695Y-57568000D02*
X134366000Y-58537695D01*
X134366000Y-59895000D02*
X134190000Y-60071000D01*
X134190000Y-60071000D02*
X133270000Y-60071000D01*
X169545000Y-88900000D02*
X168402000Y-88900000D01*
X171577000Y-88265000D02*
X170942000Y-88900000D01*
X171622000Y-88220000D02*
X171577000Y-88265000D01*
X167259000Y-90043000D02*
X166878000Y-90424000D01*
X168402000Y-88900000D02*
X167259000Y-90043000D01*
X171622000Y-65598500D02*
X171622000Y-88220000D01*
X168634500Y-62611000D02*
X171622000Y-65598500D01*
X170942000Y-88900000D02*
X169545000Y-88900000D01*
X166878000Y-90424000D02*
X153035000Y-90424000D01*
X154559000Y-76327000D02*
X156188500Y-76327000D01*
X156188500Y-76327000D02*
X156569500Y-75946000D01*
X156442500Y-83820000D02*
X156442500Y-79951000D01*
X156442500Y-79951000D02*
X154686000Y-78194500D01*
X156569500Y-75946000D02*
X156569500Y-69320500D01*
X156569500Y-69320500D02*
X156675000Y-69215000D01*
X170561000Y-75819000D02*
X170561000Y-69490500D01*
X170561000Y-69490500D02*
X170709500Y-69342000D01*
X146220000Y-83947000D02*
X146220000Y-79967000D01*
X146728000Y-76454000D02*
X146220000Y-75946000D01*
X146220000Y-79967000D02*
X147955000Y-78232000D01*
X148082000Y-76454000D02*
X146728000Y-76454000D01*
X151003000Y-84963000D02*
X147236000Y-84963000D01*
X158517500Y-83820000D02*
X157374500Y-84963000D01*
X157374500Y-84963000D02*
X152781000Y-84963000D01*
X147236000Y-84963000D02*
X146220000Y-83947000D01*
X168486000Y-75819000D02*
X168486000Y-69490500D01*
X168486000Y-69490500D02*
X168634500Y-69342000D01*
X144145000Y-75946000D02*
X145669000Y-77470000D01*
X145669000Y-77470000D02*
X150749000Y-77470000D01*
X152616500Y-77470000D02*
X166835000Y-77470000D01*
X166835000Y-77470000D02*
X168486000Y-75819000D01*
X144145000Y-75946000D02*
X144145000Y-69236500D01*
X144145000Y-69236500D02*
X144123500Y-69215000D01*
X144145000Y-83947000D02*
X144145000Y-75946000D01*
X78486000Y-99695000D02*
X78486000Y-97663000D01*
X92583000Y-101981000D02*
X88392000Y-101981000D01*
X109131000Y-101437000D02*
X110454000Y-101437000D01*
X78486000Y-97663000D02*
X81534000Y-94615000D01*
X93091000Y-101473000D02*
X92583000Y-101981000D01*
X93980000Y-97028000D02*
X93091000Y-97917000D01*
X93091000Y-97917000D02*
X93091000Y-100711000D01*
X110454000Y-101437000D02*
X111252000Y-102235000D01*
X93091000Y-100711000D02*
X93091000Y-101473000D01*
X88392000Y-101981000D02*
X86868000Y-100457000D01*
X103505000Y-58674000D02*
X105029000Y-58674000D01*
X105029000Y-58674000D02*
X105775000Y-59420000D01*
X105775000Y-59420000D02*
X105775000Y-60960000D01*
X130890000Y-62056000D02*
X130890000Y-61021000D01*
X120777000Y-97409000D02*
X121793000Y-96393000D01*
X135763000Y-61976000D02*
X135509000Y-62230000D01*
X137033000Y-61976000D02*
X135763000Y-61976000D01*
X121793000Y-96393000D02*
X123952000Y-96393000D01*
X135509000Y-62230000D02*
X131064000Y-62230000D01*
X131064000Y-62230000D02*
X130890000Y-62056000D01*
X101181000Y-101437000D02*
X109131000Y-101437000D01*
X101181000Y-96937000D02*
X109131000Y-96937000D01*
X100635000Y-83566000D02*
X108585000Y-83566000D01*
X100635000Y-88066000D02*
X108585000Y-88066000D01*
X113157000Y-78486000D02*
X110617000Y-75946000D01*
X105664000Y-75438000D02*
X105664000Y-73914000D01*
X118263000Y-78486000D02*
X113157000Y-78486000D01*
X107188000Y-75946000D02*
X106172000Y-75946000D01*
X106172000Y-75946000D02*
X105664000Y-75438000D01*
X116718000Y-61082000D02*
X116713000Y-61087000D01*
X118491000Y-61082000D02*
X116718000Y-61082000D01*
X127889000Y-62230000D02*
X127889000Y-61595000D01*
X127889000Y-61595000D02*
X128463000Y-61021000D01*
X128463000Y-61021000D02*
X130890000Y-61021000D01*
X120871000Y-59182000D02*
X120871000Y-57625000D01*
X126492000Y-55245000D02*
X126492000Y-62103000D01*
X120871000Y-57625000D02*
X119126000Y-55880000D01*
X125857000Y-54610000D02*
X126492000Y-55245000D01*
X119126000Y-55880000D02*
X119126000Y-55499000D01*
X119126000Y-55499000D02*
X120015000Y-54610000D01*
X120015000Y-54610000D02*
X125857000Y-54610000D01*
X126492000Y-62103000D02*
X127381000Y-62992000D01*
X127381000Y-62992000D02*
X140589000Y-62992000D01*
X140589000Y-62992000D02*
X140970000Y-62611000D01*
X140970000Y-62611000D02*
X144123500Y-62611000D01*
X118491000Y-59182000D02*
X116586000Y-59182000D01*
X116586000Y-59182000D02*
X115951000Y-58547000D01*
X130890000Y-56468000D02*
X130890000Y-59121000D01*
X115951000Y-58547000D02*
X115951000Y-57023000D01*
X115951000Y-57023000D02*
X119126000Y-53848000D01*
X119126000Y-53848000D02*
X128270000Y-53848000D01*
X113635625Y-58509027D02*
X114643027Y-58509027D01*
X114643027Y-58509027D02*
X116266000Y-60132000D01*
X116266000Y-60132000D02*
X118491000Y-60132000D01*
X94107000Y-89789000D02*
X94869000Y-89789000D01*
X100711000Y-76708000D02*
X101219000Y-76200000D01*
X80137000Y-90805000D02*
X80137000Y-86868000D01*
X89662000Y-85344000D02*
X94107000Y-89789000D01*
X81661000Y-85344000D02*
X89662000Y-85344000D01*
X81788000Y-92456000D02*
X80137000Y-90805000D01*
X80137000Y-86868000D02*
X81661000Y-85344000D01*
X83947000Y-92456000D02*
X81788000Y-92456000D01*
X101219000Y-64897000D02*
X102235000Y-63881000D01*
X99314000Y-76708000D02*
X100711000Y-76708000D01*
X101219000Y-76200000D02*
X101219000Y-64897000D01*
X104394000Y-76200000D02*
X105283000Y-77089000D01*
X103664000Y-73914000D02*
X103664000Y-75470000D01*
X105283000Y-77089000D02*
X107950000Y-77089000D01*
X103664000Y-75470000D02*
X104394000Y-76200000D01*
X84328000Y-86233000D02*
X85344000Y-87249000D01*
X103648000Y-67183000D02*
X102362000Y-68469000D01*
X85344000Y-87249000D02*
X87757000Y-87249000D01*
X102362000Y-68469000D02*
X102362000Y-69342000D01*
X87757000Y-87249000D02*
X88647000Y-88139000D01*
X88647000Y-88139000D02*
X88647000Y-92456000D01*
X110490000Y-71755000D02*
X111887000Y-73152000D01*
X105537000Y-69469000D02*
X106807000Y-70739000D01*
X104267000Y-69469000D02*
X105537000Y-69469000D01*
X111887000Y-73152000D02*
X111887000Y-75692000D01*
X103648000Y-68850000D02*
X104267000Y-69469000D01*
X103648000Y-67183000D02*
X103648000Y-68850000D01*
X111887000Y-75692000D02*
X113411000Y-77216000D01*
X113411000Y-77216000D02*
X118263000Y-77216000D01*
X110490000Y-86614000D02*
X110490000Y-87630000D01*
X110490000Y-87630000D02*
X110054000Y-88066000D01*
X110054000Y-88066000D02*
X108585000Y-88066000D01*
X108712000Y-67183000D02*
X109728000Y-68199000D01*
X109728000Y-77470000D02*
X110998000Y-78740000D01*
X109728000Y-68199000D02*
X109728000Y-77470000D01*
X105648000Y-67183000D02*
X108712000Y-67183000D01*
X105775000Y-63357000D02*
X107061000Y-64643000D01*
X107950000Y-68707000D02*
X107950000Y-71628000D01*
X105775000Y-60960000D02*
X105775000Y-63357000D01*
X107950000Y-71628000D02*
X105664000Y-73914000D01*
X103775000Y-60960000D02*
X103775000Y-67056000D01*
X103775000Y-67056000D02*
X103648000Y-67183000D01*
X98806000Y-79121000D02*
X110109000Y-79121000D01*
X93472000Y-73787000D02*
X98806000Y-79121000D01*
X110109000Y-79121000D02*
X111633000Y-80645000D01*
X94996000Y-80645000D02*
X97028000Y-82677000D01*
X90551000Y-67183000D02*
X89662000Y-68072000D01*
X89662000Y-68072000D02*
X89662000Y-78359000D01*
X91948000Y-80645000D02*
X94996000Y-80645000D01*
X89662000Y-78359000D02*
X91948000Y-80645000D01*
X91345000Y-67183000D02*
X90551000Y-67183000D01*
X141097000Y-97663000D02*
X142687000Y-96073000D01*
X142687000Y-96073000D02*
X144810000Y-96073000D01*
X93091000Y-82931000D02*
X94525500Y-82931000D01*
X92329000Y-63500000D02*
X90043000Y-63500000D01*
X93345000Y-61230000D02*
X93345000Y-62738000D01*
X92583000Y-63500000D02*
X92329000Y-63500000D01*
X93329000Y-61214000D02*
X93345000Y-61230000D01*
X88900000Y-78740000D02*
X93091000Y-82931000D01*
X88900000Y-64643000D02*
X88900000Y-78740000D01*
X90043000Y-63500000D02*
X88900000Y-64643000D01*
X94525500Y-82931000D02*
X94615000Y-82841500D01*
X93345000Y-62738000D02*
X92583000Y-63500000D01*
X87757000Y-80645000D02*
X89789000Y-82677000D01*
X87757000Y-62484000D02*
X87757000Y-80645000D01*
X89027000Y-61214000D02*
X87757000Y-62484000D01*
X91329000Y-61214000D02*
X89027000Y-61214000D01*
X93202000Y-55372000D02*
X98187000Y-55372000D01*
X98187000Y-55372000D02*
X103775000Y-60960000D01*
X117094000Y-96393000D02*
X119611000Y-96393000D01*
X86360000Y-59055000D02*
X86360000Y-81661000D01*
X90043000Y-55372000D02*
X86360000Y-59055000D01*
X86360000Y-81661000D02*
X87376000Y-82677000D01*
X91202000Y-55372000D02*
X90043000Y-55372000D01*
X119611000Y-96393000D02*
X121298000Y-94706000D01*
X121298000Y-94706000D02*
X121298000Y-93706000D01*
X81772000Y-73787000D02*
X83439000Y-72120000D01*
X85090000Y-58547000D02*
X85852000Y-57785000D01*
X85090000Y-65532000D02*
X85090000Y-58547000D01*
X83439000Y-72120000D02*
X83439000Y-68199000D01*
X84836000Y-66675000D02*
X85090000Y-66929000D01*
X85090000Y-66929000D02*
X85090000Y-68199000D01*
X83439000Y-66421000D02*
X83566000Y-66548000D01*
X83439000Y-64262000D02*
X83439000Y-66421000D01*
X83566000Y-66548000D02*
X83693000Y-66675000D01*
X79772000Y-67183000D02*
X78994000Y-66405000D01*
X78994000Y-66405000D02*
X78994000Y-64516000D01*
X85090000Y-68199000D02*
X85090000Y-82677000D01*
X83693000Y-66675000D02*
X84836000Y-66675000D01*
X111125000Y-57023000D02*
X116840000Y-62738000D01*
X81772000Y-55245000D02*
X83439000Y-55245000D01*
X108839000Y-57023000D02*
X111125000Y-57023000D01*
X116840000Y-62738000D02*
X119215000Y-62738000D01*
X119215000Y-62738000D02*
X120871000Y-61082000D01*
X106934000Y-55245000D02*
X107950000Y-56261000D01*
X105775000Y-55245000D02*
X106934000Y-55245000D01*
X107950000Y-56261000D02*
X107950000Y-64881000D01*
X107950000Y-64881000D02*
X105648000Y-67183000D01*
X81772000Y-80899000D02*
X84439000Y-83566000D01*
X84439000Y-83566000D02*
X100635000Y-83566000D01*
X80010000Y-75692000D02*
X79375000Y-76327000D01*
X80899000Y-75692000D02*
X80010000Y-75692000D01*
X79375000Y-76327000D02*
X79375000Y-80502000D01*
X81772000Y-73787000D02*
X81772000Y-74819000D01*
X79375000Y-80502000D02*
X79772000Y-80899000D01*
X81772000Y-74819000D02*
X80899000Y-75692000D01*
X123317000Y-56261000D02*
X123317000Y-59563000D01*
X122682000Y-55626000D02*
X123317000Y-56261000D01*
X79121000Y-73136000D02*
X79121000Y-71120000D01*
X79772000Y-73787000D02*
X79121000Y-73136000D01*
X120777000Y-55626000D02*
X122682000Y-55626000D01*
X123317000Y-59563000D02*
X122748000Y-60132000D01*
X122748000Y-60132000D02*
X120871000Y-60132000D01*
X81772000Y-67183000D02*
X81772000Y-68469000D01*
X81772000Y-68469000D02*
X81407000Y-68834000D01*
X81407000Y-68834000D02*
X78486000Y-68834000D01*
X78486000Y-68834000D02*
X78359000Y-68961000D01*
X78359000Y-68961000D02*
X78359000Y-82296000D01*
X81772000Y-81931000D02*
X81772000Y-80899000D01*
X78359000Y-82296000D02*
X78994000Y-82931000D01*
X78994000Y-82931000D02*
X80772000Y-82931000D01*
X80772000Y-82931000D02*
X81772000Y-81931000D01*
X81661000Y-61214000D02*
X81661000Y-67072000D01*
X81661000Y-67072000D02*
X81772000Y-67183000D01*
X81772000Y-55245000D02*
X81772000Y-56150000D01*
X81772000Y-56150000D02*
X81153000Y-56769000D01*
X79883000Y-56769000D02*
X79661000Y-56991000D01*
X81153000Y-56769000D02*
X79883000Y-56769000D01*
X79661000Y-56991000D02*
X79661000Y-61214000D01*
X79772000Y-55245000D02*
X78359000Y-55245000D01*
X92964000Y-55134000D02*
X93202000Y-55372000D01*
X78359000Y-55245000D02*
X78232000Y-55118000D01*
X78232000Y-55118000D02*
X78232000Y-53086000D01*
X78232000Y-53086000D02*
X79121000Y-52197000D01*
X79121000Y-52197000D02*
X91948000Y-52197000D01*
X91948000Y-52197000D02*
X92964000Y-53213000D01*
X92964000Y-53213000D02*
X92964000Y-55134000D01*
M02*
