G04 #@! TF.GenerationSoftware,KiCad,Pcbnew,7.0.7*
G04 #@! TF.CreationDate,2023-10-31T22:21:59-05:00*
G04 #@! TF.ProjectId,esp32_example,65737033-325f-4657-9861-6d706c652e6b,rev?*
G04 #@! TF.SameCoordinates,Original*
G04 #@! TF.FileFunction,Soldermask,Top*
G04 #@! TF.FilePolarity,Negative*
%FSLAX46Y46*%
G04 Gerber Fmt 4.6, Leading zero omitted, Abs format (unit mm)*
G04 Created by KiCad (PCBNEW 7.0.7) date 2023-10-31 22:21:59*
%MOMM*%
%LPD*%
G01*
G04 APERTURE LIST*
G04 Aperture macros list*
%AMRoundRect*
0 Rectangle with rounded corners*
0 $1 Rounding radius*
0 $2 $3 $4 $5 $6 $7 $8 $9 X,Y pos of 4 corners*
0 Add a 4 corners polygon primitive as box body*
4,1,4,$2,$3,$4,$5,$6,$7,$8,$9,$2,$3,0*
0 Add four circle primitives for the rounded corners*
1,1,$1+$1,$2,$3*
1,1,$1+$1,$4,$5*
1,1,$1+$1,$6,$7*
1,1,$1+$1,$8,$9*
0 Add four rect primitives between the rounded corners*
20,1,$1+$1,$2,$3,$4,$5,0*
20,1,$1+$1,$4,$5,$6,$7,0*
20,1,$1+$1,$6,$7,$8,$9,0*
20,1,$1+$1,$8,$9,$2,$3,0*%
%AMFreePoly0*
4,1,6,1.000000,0.000000,0.500000,-0.750000,-0.500000,-0.750000,-0.500000,0.750000,0.500000,0.750000,1.000000,0.000000,1.000000,0.000000,$1*%
G04 Aperture macros list end*
%ADD10O,1.740000X2.190000*%
%ADD11RoundRect,0.250000X-0.620000X-0.845000X0.620000X-0.845000X0.620000X0.845000X-0.620000X0.845000X0*%
%ADD12R,1.500000X1.500000*%
%ADD13FreePoly0,0.000000*%
%ADD14FreePoly0,180.000000*%
%ADD15O,2.704000X5.204000*%
%ADD16O,2.454000X4.704000*%
%ADD17O,4.704000X2.454000*%
%ADD18C,2.200000*%
%ADD19RoundRect,0.102000X-0.670000X-0.295000X0.670000X-0.295000X0.670000X0.295000X-0.670000X0.295000X0*%
%ADD20R,1.500000X0.900000*%
%ADD21R,0.900000X1.500000*%
%ADD22R,0.900000X0.900000*%
%ADD23R,1.550000X1.300000*%
%ADD24RoundRect,0.250000X-0.350000X-0.450000X0.350000X-0.450000X0.350000X0.450000X-0.350000X0.450000X0*%
%ADD25RoundRect,0.150000X-0.587500X-0.150000X0.587500X-0.150000X0.587500X0.150000X-0.587500X0.150000X0*%
%ADD26R,1.600000X5.700000*%
%ADD27R,1.700000X1.700000*%
%ADD28O,1.700000X1.700000*%
%ADD29RoundRect,0.250000X-0.325000X-0.450000X0.325000X-0.450000X0.325000X0.450000X-0.325000X0.450000X0*%
%ADD30RoundRect,0.250000X-0.337500X-0.475000X0.337500X-0.475000X0.337500X0.475000X-0.337500X0.475000X0*%
%ADD31C,3.200000*%
G04 APERTURE END LIST*
D10*
X143637000Y-109728000D03*
X141097000Y-109728000D03*
X138557000Y-109728000D03*
X136017000Y-109728000D03*
X133477000Y-109728000D03*
X130937000Y-109728000D03*
D11*
X128397000Y-109728000D03*
D10*
X168402000Y-110871000D03*
X165862000Y-110871000D03*
X163322000Y-110871000D03*
X160782000Y-110871000D03*
X158242000Y-110871000D03*
D11*
X155702000Y-110871000D03*
D12*
X123190000Y-101981000D03*
X120790000Y-101981000D03*
D13*
X119990000Y-101981000D03*
D14*
X123990000Y-101981000D03*
D15*
X80305000Y-107442000D03*
D16*
X86305000Y-107442000D03*
D17*
X83305000Y-102742000D03*
D18*
X90805000Y-107442000D03*
D19*
X130890000Y-60071000D03*
X130890000Y-59121000D03*
X130890000Y-61021000D03*
X133270000Y-61021000D03*
X133270000Y-60071000D03*
X133270000Y-59121000D03*
X118491000Y-60132000D03*
X118491000Y-59182000D03*
X118491000Y-61082000D03*
X120871000Y-61082000D03*
X120871000Y-60132000D03*
X120871000Y-59182000D03*
D20*
X118263000Y-75946000D03*
X118263000Y-77216000D03*
X118263000Y-78486000D03*
X118263000Y-79756000D03*
X118263000Y-81026000D03*
X118263000Y-82296000D03*
X118263000Y-83566000D03*
X118263000Y-84836000D03*
X118263000Y-86106000D03*
X118263000Y-87376000D03*
X118263000Y-88646000D03*
X118263000Y-89916000D03*
X118263000Y-91186000D03*
X118263000Y-92456000D03*
D21*
X120028000Y-93706000D03*
X121298000Y-93706000D03*
X122568000Y-93706000D03*
X123838000Y-93706000D03*
X125108000Y-93706000D03*
X126378000Y-93706000D03*
X127648000Y-93706000D03*
X128918000Y-93706000D03*
X130188000Y-93706000D03*
X131458000Y-93706000D03*
X132728000Y-93706000D03*
X133998000Y-93706000D03*
D20*
X135763000Y-92456000D03*
X135763000Y-91186000D03*
X135763000Y-89916000D03*
X135763000Y-88646000D03*
X135763000Y-87376000D03*
X135763000Y-86106000D03*
X135763000Y-84836000D03*
X135763000Y-83566000D03*
X135763000Y-82296000D03*
X135763000Y-81026000D03*
X135763000Y-79756000D03*
X135763000Y-78486000D03*
X135763000Y-77216000D03*
X135763000Y-75946000D03*
D22*
X124113000Y-82266000D03*
X124113000Y-83666000D03*
X124113000Y-85066000D03*
X124113000Y-85066000D03*
X125513000Y-82266000D03*
X125513000Y-82266000D03*
X125513000Y-83666000D03*
X125513000Y-85066000D03*
X126913000Y-82266000D03*
X126913000Y-83666000D03*
X126913000Y-85066000D03*
D23*
X108585000Y-83566000D03*
X100635000Y-83566000D03*
X108585000Y-88066000D03*
X100635000Y-88066000D03*
X109131000Y-96937000D03*
X101181000Y-96937000D03*
X109131000Y-101437000D03*
X101181000Y-101437000D03*
D24*
X103648000Y-67183000D03*
X105648000Y-67183000D03*
X103775000Y-60960000D03*
X105775000Y-60960000D03*
X103775000Y-55245000D03*
X105775000Y-55245000D03*
X103664000Y-73914000D03*
X105664000Y-73914000D03*
X91472000Y-73787000D03*
X93472000Y-73787000D03*
X91345000Y-67183000D03*
X93345000Y-67183000D03*
X91329000Y-61214000D03*
X93329000Y-61214000D03*
X91202000Y-55372000D03*
X93202000Y-55372000D03*
X79772000Y-80899000D03*
X81772000Y-80899000D03*
X79772000Y-73787000D03*
X81772000Y-73787000D03*
X79772000Y-67183000D03*
X81772000Y-67183000D03*
X79661000Y-61214000D03*
X81661000Y-61214000D03*
X81772000Y-55245000D03*
X79772000Y-55245000D03*
D25*
X144810000Y-101285000D03*
X144810000Y-103185000D03*
X146685000Y-102235000D03*
X146685000Y-95123000D03*
X144810000Y-96073000D03*
X144810000Y-94173000D03*
D26*
X156527000Y-100203000D03*
X161227000Y-100203000D03*
X83947000Y-92456000D03*
X88647000Y-92456000D03*
D10*
X109855000Y-109113000D03*
X107315000Y-109113000D03*
X104775000Y-109113000D03*
D11*
X102235000Y-109113000D03*
X120142000Y-110129000D03*
D10*
X122682000Y-110129000D03*
D27*
X169545000Y-92207000D03*
D28*
X169545000Y-94747000D03*
X169545000Y-97287000D03*
X169545000Y-99827000D03*
X169545000Y-102367000D03*
D29*
X131300000Y-101981000D03*
X133350000Y-101981000D03*
D30*
X170561000Y-75819000D03*
X168486000Y-75819000D03*
X168634500Y-69342000D03*
X170709500Y-69342000D03*
X168634500Y-62611000D03*
X170709500Y-62611000D03*
X168783000Y-54737000D03*
X170858000Y-54737000D03*
X158517500Y-83820000D03*
X156442500Y-83820000D03*
X158644500Y-75946000D03*
X156569500Y-75946000D03*
X156675000Y-69215000D03*
X158750000Y-69215000D03*
X156675000Y-62484000D03*
X158750000Y-62484000D03*
X156675000Y-54864000D03*
X158750000Y-54864000D03*
X146220000Y-83947000D03*
X144145000Y-83947000D03*
X146220000Y-75946000D03*
X144145000Y-75946000D03*
X144123500Y-69215000D03*
X146198500Y-69215000D03*
X144123500Y-62611000D03*
X146198500Y-62611000D03*
X143869500Y-54864000D03*
X145944500Y-54864000D03*
D31*
X80137000Y-118872000D03*
X170137000Y-118872000D03*
X170137000Y-47372000D03*
X80137000Y-47372000D03*
M02*
