G04 #@! TF.GenerationSoftware,KiCad,Pcbnew,7.0.7*
G04 #@! TF.CreationDate,2023-10-24T20:00:19-05:00*
G04 #@! TF.ProjectId,esp32_example,65737033-325f-4657-9861-6d706c652e6b,rev?*
G04 #@! TF.SameCoordinates,Original*
G04 #@! TF.FileFunction,Paste,Top*
G04 #@! TF.FilePolarity,Positive*
%FSLAX46Y46*%
G04 Gerber Fmt 4.6, Leading zero omitted, Abs format (unit mm)*
G04 Created by KiCad (PCBNEW 7.0.7) date 2023-10-24 20:00:19*
%MOMM*%
%LPD*%
G01*
G04 APERTURE LIST*
G04 Aperture macros list*
%AMRoundRect*
0 Rectangle with rounded corners*
0 $1 Rounding radius*
0 $2 $3 $4 $5 $6 $7 $8 $9 X,Y pos of 4 corners*
0 Add a 4 corners polygon primitive as box body*
4,1,4,$2,$3,$4,$5,$6,$7,$8,$9,$2,$3,0*
0 Add four circle primitives for the rounded corners*
1,1,$1+$1,$2,$3*
1,1,$1+$1,$4,$5*
1,1,$1+$1,$6,$7*
1,1,$1+$1,$8,$9*
0 Add four rect primitives between the rounded corners*
20,1,$1+$1,$2,$3,$4,$5,0*
20,1,$1+$1,$4,$5,$6,$7,0*
20,1,$1+$1,$6,$7,$8,$9,0*
20,1,$1+$1,$8,$9,$2,$3,0*%
G04 Aperture macros list end*
%ADD10RoundRect,0.150000X-0.587500X-0.150000X0.587500X-0.150000X0.587500X0.150000X-0.587500X0.150000X0*%
%ADD11R,1.340000X0.590000*%
%ADD12R,1.500000X0.900000*%
%ADD13R,0.900000X1.500000*%
%ADD14R,0.900000X0.900000*%
%ADD15R,1.550000X1.300000*%
%ADD16RoundRect,0.250000X0.350000X0.450000X-0.350000X0.450000X-0.350000X-0.450000X0.350000X-0.450000X0*%
%ADD17RoundRect,0.250000X-0.350000X-0.450000X0.350000X-0.450000X0.350000X0.450000X-0.350000X0.450000X0*%
%ADD18RoundRect,0.250000X0.450000X-0.350000X0.450000X0.350000X-0.450000X0.350000X-0.450000X-0.350000X0*%
%ADD19R,1.600000X5.700000*%
%ADD20RoundRect,0.250000X-0.325000X-0.450000X0.325000X-0.450000X0.325000X0.450000X-0.325000X0.450000X0*%
%ADD21RoundRect,0.250000X-0.337500X-0.475000X0.337500X-0.475000X0.337500X0.475000X-0.337500X0.475000X0*%
%ADD22RoundRect,0.250000X0.337500X0.475000X-0.337500X0.475000X-0.337500X-0.475000X0.337500X-0.475000X0*%
%ADD23RoundRect,0.250000X0.475000X-0.337500X0.475000X0.337500X-0.475000X0.337500X-0.475000X-0.337500X0*%
%ADD24RoundRect,0.250000X-0.475000X0.337500X-0.475000X-0.337500X0.475000X-0.337500X0.475000X0.337500X0*%
G04 APERTURE END LIST*
D10*
X96090500Y-104841000D03*
X96090500Y-106741000D03*
X97965500Y-105791000D03*
D11*
X146288000Y-73980000D03*
X146288000Y-74930000D03*
X146288000Y-75880000D03*
X143908000Y-75880000D03*
X143908000Y-73980000D03*
X143908000Y-74930000D03*
X143999500Y-52959000D03*
X143999500Y-52009000D03*
X143999500Y-53909000D03*
X146379500Y-53909000D03*
X146379500Y-52959000D03*
X146379500Y-52009000D03*
D12*
X110871000Y-70485000D03*
X110871000Y-71755000D03*
X110871000Y-73025000D03*
X110871000Y-74295000D03*
X110871000Y-75565000D03*
X110871000Y-76835000D03*
X110871000Y-78105000D03*
X110871000Y-79375000D03*
X110871000Y-80645000D03*
X110871000Y-81915000D03*
X110871000Y-83185000D03*
X110871000Y-84455000D03*
X110871000Y-85725000D03*
X110871000Y-86995000D03*
D13*
X112636000Y-88245000D03*
X113906000Y-88245000D03*
X115176000Y-88245000D03*
X116446000Y-88245000D03*
X117716000Y-88245000D03*
X118986000Y-88245000D03*
X120256000Y-88245000D03*
X121526000Y-88245000D03*
X122796000Y-88245000D03*
X124066000Y-88245000D03*
X125336000Y-88245000D03*
X126606000Y-88245000D03*
D12*
X128371000Y-86995000D03*
X128371000Y-85725000D03*
X128371000Y-84455000D03*
X128371000Y-83185000D03*
X128371000Y-81915000D03*
X128371000Y-80645000D03*
X128371000Y-79375000D03*
X128371000Y-78105000D03*
X128371000Y-76835000D03*
X128371000Y-75565000D03*
X128371000Y-74295000D03*
X128371000Y-73025000D03*
X128371000Y-71755000D03*
X128371000Y-70485000D03*
D14*
X116721000Y-76805000D03*
X116721000Y-78205000D03*
X116721000Y-79605000D03*
X116721000Y-79605000D03*
X118121000Y-76805000D03*
X118121000Y-76805000D03*
X118121000Y-78205000D03*
X118121000Y-79605000D03*
X119521000Y-76805000D03*
X119521000Y-78205000D03*
X119521000Y-79605000D03*
D15*
X96050000Y-70521000D03*
X88100000Y-70521000D03*
X96050000Y-75021000D03*
X88100000Y-75021000D03*
X96177000Y-52868000D03*
X88227000Y-52868000D03*
X96177000Y-57368000D03*
X88227000Y-57368000D03*
D16*
X95615000Y-80391000D03*
X93615000Y-80391000D03*
X96631000Y-62865000D03*
X94631000Y-62865000D03*
X98028000Y-99314000D03*
X96028000Y-99314000D03*
X88535000Y-99695000D03*
X90535000Y-99695000D03*
D17*
X89376000Y-92837000D03*
X87376000Y-92837000D03*
X98266000Y-112141000D03*
X96266000Y-112141000D03*
D16*
X90662000Y-110998000D03*
X88662000Y-110998000D03*
D17*
X99711000Y-75311000D03*
X101711000Y-75311000D03*
D18*
X150114000Y-80153000D03*
X150114000Y-82153000D03*
D17*
X144352000Y-83185000D03*
X146352000Y-83185000D03*
X135652000Y-64389000D03*
X137652000Y-64389000D03*
D18*
X156591000Y-57896000D03*
X156591000Y-55896000D03*
D17*
X150511000Y-57404000D03*
X152511000Y-57404000D03*
D10*
X88676000Y-105095000D03*
X88676000Y-106995000D03*
X90551000Y-106045000D03*
D19*
X148019000Y-88138000D03*
X143319000Y-88138000D03*
X150305000Y-64389000D03*
X145605000Y-64389000D03*
D20*
X136008000Y-68834000D03*
X138058000Y-68834000D03*
D21*
X103589000Y-58928000D03*
X105664000Y-58928000D03*
X103589000Y-52705000D03*
X105664000Y-52705000D03*
D22*
X88900000Y-80137000D03*
X86825000Y-80137000D03*
X88794500Y-62865000D03*
X86719500Y-62865000D03*
D23*
X140843000Y-80242500D03*
X140843000Y-82317500D03*
X136271000Y-77956500D03*
X136271000Y-80031500D03*
D21*
X145182500Y-79248000D03*
X143107500Y-79248000D03*
D24*
X149606000Y-76475500D03*
X149606000Y-74400500D03*
D23*
X139637000Y-74803000D03*
X139637000Y-76878000D03*
X139573000Y-59076500D03*
X139573000Y-57001500D03*
X134493000Y-55245000D03*
X134493000Y-53170000D03*
D21*
X144102000Y-57912000D03*
X146177000Y-57912000D03*
D24*
X150749000Y-52027000D03*
X150749000Y-54102000D03*
D23*
X139573000Y-54123500D03*
X139573000Y-52048500D03*
M02*
