M48
; DRILL file {KiCad 7.0.7} date 2023 October 31, Tuesday 22:22:23
; FORMAT={-:-/ absolute / inch / decimal}
; #@! TF.CreationDate,2023-10-31T22:22:23-05:00
; #@! TF.GenerationSoftware,Kicad,Pcbnew,7.0.7
; #@! TF.FileFunction,Plated,1,2,PTH
FMAT,2
INCH
; #@! TA.AperFunction,Plated,PTH,ViaDrill
T1C0.0157
; #@! TA.AperFunction,Plated,PTH,ComponentDrill
T2C0.0394
; #@! TA.AperFunction,Plated,PTH,ComponentDrill
T3C0.0469
%
G90
G05
T1
X3.0615Y-3.855
X3.09Y-3.925
X3.11Y-2.54
X3.115Y-2.8
X3.1198Y-2.9698
X3.21Y-3.725
X3.285Y-2.175
X3.285Y-2.53
X3.285Y-2.685
X3.32Y-3.395
X3.35Y-2.58
X3.35Y-3.255
X3.38Y-2.275
X3.42Y-3.955
X3.44Y-3.255
X3.465Y-3.795
X3.52Y-3.87
X3.535Y-3.255
X3.615Y-3.96
X3.62Y-3.795
X3.625Y-3.1
X3.68Y-3.72
X3.7Y-3.82
X3.71Y-3.475
X3.725Y-3.2615
X3.735Y-3.535
X3.8Y-4.055
X3.82Y-2.11
X3.82Y-3.255
X3.85Y-2.21
X3.86Y-4.42
X3.8652Y-4.1748
X3.87Y-3.605
X3.88Y-2.0465
X3.88Y-2.34
X3.8985Y-3.53
X3.91Y-3.02
X4.025Y-2.515
X4.03Y-2.73
X4.075Y-2.31
X4.205Y-2.785
X4.215Y-2.545
X4.22Y-2.99
X4.25Y-2.705
X4.25Y-3.035
X4.285Y-2.245
X4.295Y-3.6685
X4.3Y-3.7385
X4.35Y-2.825
X4.35Y-3.41
X4.35Y-3.505
X4.355Y-2.99
X4.37Y-3.1
X4.38Y-3.705
X4.38Y-4.025
X4.395Y-3.175
X4.395Y-3.32
X4.415Y-4.1315
X4.415Y-4.345
X4.42Y-2.38
X4.43Y-3.61
X4.435Y-3.14
X4.44Y-3.795
X4.445Y-2.97
X4.45Y-3.525
X4.45Y-4.0365
X4.46Y-4.4465
X4.47Y-2.57
X4.4738Y-2.3035
X4.485Y-4.3
X4.495Y-4.045
X4.5Y-4.235
X4.505Y-3.47
X4.5198Y-3.5885
X4.545Y-2.86
X4.545Y-3.945
X4.555Y-4.1315
X4.56Y-2.985
X4.56Y-3.635
X4.56Y-4.395
X4.575Y-3.34
X4.59Y-3.1615
X4.595Y-2.405
X4.61Y-3.795
X4.62Y-4.0665
X4.755Y-2.19
X4.755Y-3.835
X4.81Y-2.265
X4.88Y-3.795
X4.925Y-2.19
X4.935Y-4.1512
X4.935Y-4.375
X4.955Y-3.7565
X4.955Y-3.99
X4.995Y-3.98
X5.01Y-3.8135
X5.0225Y-4.0975
X5.035Y-2.45
X5.035Y-3.895
X5.035Y-3.995
X5.045Y-2.19
X5.075Y-3.8188
X5.08Y-3.9
X5.08Y-4.0
X5.11Y-4.05
X5.14Y-2.13
X5.155Y-4.1571
X5.1552Y-3.7798
X5.205Y-3.87
X5.265Y-2.08
X5.285Y-3.78
X5.32Y-2.635
X5.325Y-2.345
X5.335Y-3.9335
X5.335Y-3.995
X5.3351Y-3.84
X5.34Y-2.295
X5.3608Y-2.4115
X5.375Y-3.96
X5.3831Y-3.8587
X5.395Y-2.44
X5.4Y-2.195
X5.415Y-3.49
X5.4172Y-3.9335
X5.4178Y-2.2982
X5.43Y-3.68
X5.44Y-2.11
X5.445Y-3.25
X5.45Y-2.34
X5.4575Y-3.4125
X5.46Y-3.315
X5.46Y-3.82
X5.46Y-4.025
X5.465Y-2.645
X5.465Y-3.37
X5.48Y-4.08
X5.485Y-2.95
X5.485Y-3.21
X5.495Y-3.6388
X5.515Y-3.945
X5.53Y-3.675
X5.5315Y-3.755
X5.535Y-2.205
X5.535Y-2.375
X5.5415Y-4.045
X5.555Y-3.845
X5.565Y-3.415
X5.585Y-3.875
X5.59Y-4.095
X5.595Y-2.7
X5.73Y-2.61
X5.78Y-2.885
X5.8Y-2.315
X5.8Y-3.59
X5.82Y-3.525
X5.825Y-3.08
X5.83Y-3.01
X5.835Y-4.27
X5.84Y-3.9
X5.84Y-3.9635
X5.865Y-3.595
X5.875Y-4.385
X5.8762Y-3.8109
X5.92Y-3.52
X5.935Y-3.05
X5.935Y-3.605
X5.945Y-3.345
X5.97Y-3.74
X6.0085Y-3.05
X6.015Y-3.345
X6.025Y-3.56
X6.065Y-3.45
X6.0652Y-4.1898
X6.085Y-3.005
X6.085Y-3.66
X6.09Y-3.0785
X6.125Y-4.19
X6.23Y-4.185
X6.235Y-2.335
X6.27Y-3.645
X6.29Y-3.11
X6.345Y-2.975
X6.365Y-2.565
X6.375Y-3.735
X6.415Y-4.1165
X6.43Y-4.18
X6.46Y-2.995
X6.46Y-3.79
X6.49Y-3.465
X6.49Y-3.67
X6.52Y-2.165
X6.555Y-4.05
X6.555Y-4.16
X6.56Y-3.735
X6.6Y-3.055
X6.8085Y-3.3
T2
X6.675Y-3.6302
X6.675Y-3.7302
X6.675Y-3.8302
X6.675Y-3.9302
X6.675Y-4.0302
T3
X4.025Y-4.2958
X4.125Y-4.2958
X4.225Y-4.2958
X4.325Y-4.2958
X4.73Y-4.3358
X4.83Y-4.3358
X5.055Y-4.32
X5.155Y-4.32
X5.255Y-4.32
X5.355Y-4.32
X5.455Y-4.32
X5.555Y-4.32
X5.655Y-4.32
X6.13Y-4.365
X6.23Y-4.365
X6.33Y-4.365
X6.43Y-4.365
X6.53Y-4.365
X6.63Y-4.365
T2
G00X3.1616Y-4.1808
M15
G01X3.1616Y-4.2792
M16
G05
G00X3.2404Y-4.045
M15
G01X3.3191Y-4.045
M16
G05
G00X3.3978Y-4.1906
M15
G01X3.3978Y-4.2694
M16
G05
T0
M30
